<svg xmlns="http://www.w3.org/2000/svg" style="display:none">
  <symbol id="wxicon-sun" viewBox="0 0 64 64">
    <g fill="none" stroke="currentColor" stroke-width="2" stroke-linecap="round" stroke-linejoin="round">
      <circle cx="32" cy="32" r="11" />
      <line x1="32" y1="6"  x2="32" y2="13" />
      <line x1="32" y1="51" x2="32" y2="58" />
      <line x1="6"  y1="32" x2="13" y2="32" />
      <line x1="51" y1="32" x2="58" y2="32" />
      <line x1="14" y1="14" x2="19" y2="19" />
      <line x1="45" y1="45" x2="50" y2="50" />
      <line x1="45" y1="14" x2="50" y2="19" />
      <line x1="14" y1="50" x2="19" y2="45" />
    </g>
  </symbol>
  <symbol id="wxicon-moon" viewBox="0 0 64 64">
    <path d="M 44 10 A 22 22 0 1 0 44 54 A 17 17 0 1 1 44 10 Z"
      fill="none" stroke="currentColor" stroke-width="2" stroke-linejoin="round" />
  </symbol>
  <symbol id="wxicon-cloud" viewBox="0 0 64 64">
    <path d="M 14 46 L 14 38 Q 14 30 22 30 Q 24 22 32 22 Q 42 22 44 30 Q 52 30 52 38 L 52 46 Z"
      fill="none" stroke="currentColor" stroke-width="2" stroke-linejoin="round" />
  </symbol>
  <symbol id="wxicon-partly-day" viewBox="0 0 64 64">
    <g fill="none" stroke="currentColor" stroke-width="2" stroke-linecap="round" stroke-linejoin="round">
      <circle cx="22" cy="20" r="7" />
      <line x1="22" y1="6"  x2="22" y2="10" />
      <line x1="8"  y1="20" x2="12" y2="20" />
      <line x1="12" y1="10" x2="15" y2="13" />
      <line x1="32" y1="10" x2="29" y2="13" />
    </g>
    <path d="M 16 52 L 16 44 Q 16 36 24 36 Q 26 30 34 30 Q 42 30 44 36 Q 52 36 52 44 L 52 52 Z"
      fill="#000d10" stroke="currentColor" stroke-width="2" stroke-linejoin="round" />
  </symbol>
  <symbol id="wxicon-partly-night" viewBox="0 0 64 64">
    <path d="M 30 8 A 16 16 0 1 0 30 40 A 12 12 0 1 1 30 8 Z"
      fill="none" stroke="currentColor" stroke-width="2" stroke-linejoin="round" />
    <path d="M 16 52 L 16 44 Q 16 36 24 36 Q 26 30 34 30 Q 42 30 44 36 Q 52 36 52 44 L 52 52 Z"
      fill="#000d10" stroke="currentColor" stroke-width="2" stroke-linejoin="round" />
  </symbol>
  <symbol id="wxicon-rain" viewBox="0 0 64 64">
    <path d="M 12 36 L 12 28 Q 12 20 20 20 Q 22 12 30 12 Q 40 12 42 20 Q 50 20 50 28 L 50 36 Z"
      fill="none" stroke="currentColor" stroke-width="2" stroke-linejoin="round" />
    <g fill="none" stroke="currentColor" stroke-width="2" stroke-linecap="round">
      <line x1="18" y1="44" x2="14" y2="54" />
      <line x1="30" y1="44" x2="26" y2="54" />
      <line x1="42" y1="44" x2="38" y2="54" />
    </g>
  </symbol>
  <symbol id="wxicon-snow" viewBox="0 0 64 64">
    <path d="M 12 36 L 12 28 Q 12 20 20 20 Q 22 12 30 12 Q 40 12 42 20 Q 50 20 50 28 L 50 36 Z"
      fill="none" stroke="currentColor" stroke-width="2" stroke-linejoin="round" />
    <g fill="none" stroke="currentColor" stroke-width="1.8" stroke-linecap="round">
      <g transform="translate(18,48)">
        <line x1="-4" y1="0"  x2="4"  y2="0" />
        <line x1="0"  y1="-4" x2="0"  y2="4" />
        <line x1="-3" y1="-3" x2="3"  y2="3" />
        <line x1="-3" y1="3"  x2="3"  y2="-3" />
      </g>
      <g transform="translate(32,52)">
        <line x1="-4" y1="0"  x2="4"  y2="0" />
        <line x1="0"  y1="-4" x2="0"  y2="4" />
        <line x1="-3" y1="-3" x2="3"  y2="3" />
        <line x1="-3" y1="3"  x2="3"  y2="-3" />
      </g>
      <g transform="translate(46,48)">
        <line x1="-4" y1="0"  x2="4"  y2="0" />
        <line x1="0"  y1="-4" x2="0"  y2="4" />
        <line x1="-3" y1="-3" x2="3"  y2="3" />
        <line x1="-3" y1="3"  x2="3"  y2="-3" />
      </g>
    </g>
  </symbol>
  <symbol id="wxicon-thunder" viewBox="0 0 64 64">
    <path d="M 12 36 L 12 28 Q 12 20 20 20 Q 22 12 30 12 Q 40 12 42 20 Q 50 20 50 28 L 50 36 Z"
      fill="none" stroke="currentColor" stroke-width="2" stroke-linejoin="round" />
    <path d="M 34 38 L 24 50 L 31 50 L 25 60"
      fill="none" stroke="currentColor" stroke-width="2" stroke-linecap="round" stroke-linejoin="round" />
  </symbol>
  <symbol id="wxicon-fog" viewBox="0 0 64 64">
    <g fill="none" stroke="currentColor" stroke-width="2" stroke-linecap="round" stroke-linejoin="round">
      <path d="M 10 20 Q 20 14 32 20 T 54 20" />
      <path d="M 10 30 Q 20 24 32 30 T 54 30" />
      <path d="M 10 40 Q 20 34 32 40 T 54 40" />
      <path d="M 10 50 Q 20 44 32 50 T 54 50" />
    </g>
  </symbol>
</svg>
